# xmcd
#
# Track frame offsets:
#  150
#  13985
#  23872
#  38570
#  55495
#  68445
#  82882
#  96890
#  109640
#  124820
#  135615
#  150315
#  167957
#  181440
#  192417
#  203745
#  229430
#  237935
#
# Disc length: 3349 seconds
#
# Revision: 0
# Processed by: cddbd v1.5.1PL2 Copyright (c) Steve Scherf et al.
# Submitted via: Collectorz.com_Music_Collector 6.11
#
DISCID=ee0d1312
DTITLE=Various Artist - Rough and Ready Rockerbilly
DYEAR=1993
DGENRE=Rockabilly
TTITLE0=Pelaco Bros - Rockabilly Heaven
TTITLE1=Pelaco Bros - Truckdrivers Queen
TTITLE2=Pelaco Bros - Truckdrivin' Guru
TTITLE3=Auto Drifters - Locked Out Of Love
TTITLE4=Auto Drifters - Santa's Joined A Disco Band
TTITLE5=Auto Drifters - Big Jim
TTITLE6=Fabulous Nudes - Come Back-a-Baby
TTITLE7=Relaxed Mechanics - Shakin' The Blues
TTITLE8=Fabulous Nudes - I'll Be A Dog For You Baby
TTITLE9=Auto Drifters - Mr. Whiz
TTITLE10=Relaxed Mechanics - Gooseball Brown
TTITLE11=Fabulous Nudes - Harry's Cafe de Wheels
TTITLE12=Relaxed Mechanics - Truckin' Casanova
TTITLE13=Auto Drifters - Morse Code
TTITLE14=Fabulous Nudes - I Need A Car
TTITLE15=Pelaco Bros - Mechanics In A Relaxed Manner
TTITLE16=Peter Lillie and The Leisuremasters - Hangin' Around The House
TTITLE17=Peter Lillie and The Leisuremasters - Holiday House
EXTD=
EXTT0=
EXTT1=
EXTT2=
EXTT3=
EXTT4=
EXTT5=
EXTT6=
EXTT7=
EXTT8=
EXTT9=
EXTT10=
EXTT11=
EXTT12=
EXTT13=
EXTT14=
EXTT15=
EXTT16=
EXTT17=
PLAYORDER=
